<svg width="20" height="16" viewBox="0 0 20 16" fill="none" xmlns="http://www.w3.org/2000/svg">
<rect width="20" height="16" rx="5" fill="#163159"/>
<path d="M7.254 10.06C7.05 10.06 6.876 10.024 6.732 9.952C6.588 9.876 6.476 9.77 6.396 9.634C6.32 9.494 6.282 9.33 6.282 9.142C6.282 8.834 6.394 8.61 6.618 8.47C6.842 8.326 7.18 8.246 7.632 8.23L8.13 8.212V7.57C8.13 7.374 8.118 7.218 8.094 7.102C8.07 6.986 8.026 6.902 7.962 6.85C7.898 6.798 7.808 6.772 7.692 6.772C7.568 6.772 7.472 6.802 7.404 6.862C7.336 6.922 7.29 7.02 7.266 7.156C7.242 7.292 7.23 7.474 7.23 7.702C6.998 7.702 6.824 7.672 6.708 7.612C6.592 7.552 6.534 7.452 6.534 7.312C6.534 7.168 6.586 7.052 6.69 6.964C6.798 6.876 6.942 6.812 7.122 6.772C7.302 6.732 7.498 6.712 7.71 6.712C8.11 6.712 8.41 6.79 8.61 6.946C8.81 7.098 8.91 7.362 8.91 7.738V9.532C8.91 9.636 8.92 9.718 8.94 9.778C8.964 9.834 9.004 9.876 9.06 9.904C9.116 9.928 9.188 9.94 9.276 9.94H9.294V10H8.154V9.382H8.142C8.094 9.55 8.026 9.684 7.938 9.784C7.85 9.88 7.748 9.95 7.632 9.994C7.516 10.038 7.39 10.06 7.254 10.06ZM7.488 9.922C7.616 9.922 7.728 9.88 7.824 9.796C7.92 9.712 7.994 9.604 8.046 9.472C8.102 9.336 8.13 9.192 8.13 9.04V8.272L7.818 8.29C7.63 8.298 7.482 8.332 7.374 8.392C7.27 8.452 7.194 8.544 7.146 8.668C7.102 8.792 7.08 8.954 7.08 9.154C7.08 9.334 7.094 9.482 7.122 9.598C7.154 9.71 7.2 9.792 7.26 9.844C7.32 9.896 7.396 9.922 7.488 9.922ZM11.0278 10.06C10.7638 10.06 10.5398 10 10.3558 9.88C10.1758 9.756 10.0378 9.57 9.94177 9.322C9.84977 9.074 9.80377 8.76 9.80377 8.38C9.80377 8 9.84977 7.688 9.94177 7.444C10.0378 7.2 10.1738 7.018 10.3498 6.898C10.5298 6.778 10.7478 6.718 11.0038 6.718C11.2558 6.718 11.4598 6.788 11.6158 6.928C11.7718 7.064 11.8718 7.276 11.9158 7.564H11.9278C11.9278 7.412 11.9258 7.268 11.9218 7.132C11.9218 6.992 11.9218 6.868 11.9218 6.76C11.9218 6.648 11.9218 6.56 11.9218 6.496V5.902C11.9218 5.794 11.8998 5.712 11.8558 5.656C11.8158 5.596 11.7618 5.556 11.6938 5.536C11.6258 5.512 11.5518 5.5 11.4718 5.5H11.4178V5.44H12.7018V9.52C12.7018 9.632 12.7218 9.718 12.7618 9.778C12.8018 9.838 12.8558 9.88 12.9238 9.904C12.9958 9.928 13.0718 9.94 13.1518 9.94H13.2178V10H11.9278V9.166H11.9158C11.8718 9.474 11.7718 9.7 11.6158 9.844C11.4638 9.988 11.2678 10.06 11.0278 10.06ZM11.2258 9.934C11.4578 9.934 11.6318 9.8 11.7478 9.532C11.8638 9.264 11.9218 8.864 11.9218 8.332C11.9218 8.004 11.8958 7.73 11.8438 7.51C11.7918 7.29 11.7138 7.124 11.6098 7.012C11.5098 6.9 11.3798 6.844 11.2198 6.844C11.0758 6.844 10.9578 6.898 10.8658 7.006C10.7738 7.11 10.7058 7.272 10.6618 7.492C10.6218 7.712 10.6018 7.99 10.6018 8.326C10.6018 8.694 10.6238 8.996 10.6678 9.232C10.7118 9.468 10.7798 9.644 10.8718 9.76C10.9678 9.876 11.0858 9.934 11.2258 9.934Z" fill="white"/>
</svg>
