<svg width="21" height="20" viewBox="0 0 21 20" fill="none" xmlns="http://www.w3.org/2000/svg">
<g clip-path="url(#clip0_643_320)">
<path d="M10.25 20C15.7728 20 20.25 15.5228 20.25 10C20.25 4.47715 15.7728 0 10.25 0C4.72715 0 0.25 4.47715 0.25 10C0.25 15.5228 4.72715 20 10.25 20Z" fill="#F7931A"/>
<path d="M14.7431 8.7625C14.9394 7.4525 13.9413 6.74813 12.5775 6.27813L13.02 4.50313L11.94 4.23438L11.5088 5.9625C11.225 5.89125 10.9338 5.825 10.6431 5.75875L11.0775 4.01938L9.99752 3.75L9.55502 5.52437C9.32002 5.47063 9.08877 5.41813 8.86502 5.36188L8.86627 5.35625L7.37627 4.98438L7.08877 6.13813C7.08877 6.13813 7.89064 6.32188 7.87377 6.33313C8.31127 6.4425 8.39002 6.73188 8.37689 6.96188L7.87314 8.98375C7.90314 8.99125 7.94189 9.0025 7.98564 9.01938L7.87127 8.99125L7.16502 11.8238C7.11127 11.9563 6.97564 12.1556 6.66939 12.08C6.68064 12.0956 5.8844 11.8844 5.8844 11.8844L5.34814 13.1206L6.75439 13.4713C7.01564 13.5369 7.27189 13.6056 7.52377 13.67L7.07689 15.465L8.15627 15.7338L8.59877 13.9588C8.89377 14.0381 9.18002 14.1119 9.46002 14.1819L9.01877 15.9494L10.0988 16.2181L10.5456 14.4269C12.3881 14.7756 13.7731 14.635 14.3563 12.9688C14.8263 11.6275 14.3331 10.8531 13.3638 10.3488C14.07 10.1863 14.6013 9.72188 14.7431 8.7625ZM12.2744 12.2238C11.9413 13.5656 9.68189 12.84 8.94939 12.6581L9.54315 10.28C10.2756 10.4631 12.6238 10.825 12.2744 12.2238ZM12.6088 8.74313C12.3044 9.96375 10.4244 9.34313 9.81502 9.19125L10.3525 7.035C10.9619 7.18688 12.9263 7.47 12.6088 8.74313Z" fill="white"/>
</g>
<defs>
<clipPath id="clip0_643_320">
<rect width="20" height="20" fill="white" transform="translate(0.25)"/>
</clipPath>
</defs>
</svg>
