<svg width="20" height="20" viewBox="0 0 20 20" fill="none" xmlns="http://www.w3.org/2000/svg">
<path fill-rule="evenodd" clip-rule="evenodd" d="M8.35404 3.53735C5.46814 4.27018 3.33329 6.88542 3.33329 9.99929C3.33329 13.6812 6.31806 16.666 9.99996 16.666C11.4943 16.666 12.8737 16.1748 13.9858 15.3439C10.2725 14.5034 7.49996 11.1835 7.49996 7.21605C7.49996 5.89617 7.80728 4.64706 8.35404 3.53735ZM1.66663 9.99929C1.66663 5.39691 5.39759 1.66595 9.99996 1.66595L10.002 1.66595C10.3232 1.66603 10.6158 1.85071 10.754 2.14064C10.8923 2.43057 10.8516 2.77414 10.6494 3.02375C9.72176 4.16924 9.16663 5.62668 9.16663 7.21605C9.16663 10.8974 12.1505 13.8818 15.8316 13.8827C16.1528 13.8828 16.4454 14.0675 16.5836 14.3574C16.7219 14.6473 16.6812 14.9909 16.479 15.2405C14.9526 17.1253 12.617 18.3326 9.99996 18.3326C5.39759 18.3326 1.66663 14.6017 1.66663 9.99929Z" fill="#A5A5A5"/>
<path d="M12.5 5.83332C12.9602 5.83332 13.3333 5.46023 13.3333 4.99999C13.3333 4.53975 12.9602 4.16666 12.5 4.16666C12.0397 4.16666 11.6666 4.53975 11.6666 4.99999C11.6666 5.46023 12.0397 5.83332 12.5 5.83332Z" fill="#A5A5A5"/>
<path d="M16.6666 11.6667C16.6666 12.1269 16.2935 12.5 15.8333 12.5C15.3731 12.5 15 12.1269 15 11.6667V10.8333H14.1666C13.7064 10.8333 13.3333 10.4602 13.3333 9.99999C13.3333 9.53975 13.7064 9.16666 14.1666 9.16666H15V8.33332C15 7.87309 15.3731 7.49999 15.8333 7.49999C16.2935 7.49999 16.6666 7.87309 16.6666 8.33332V9.16666H17.5C17.9602 9.16666 18.3333 9.53975 18.3333 9.99999C18.3333 10.4602 17.9602 10.8333 17.5 10.8333H16.6666V11.6667Z" fill="#A5A5A5"/>
</svg>
