<svg width="21" height="20" viewBox="0 0 21 20" fill="none" xmlns="http://www.w3.org/2000/svg">
<path fill-rule="evenodd" clip-rule="evenodd" d="M9.77771 7.91728C9.54726 8.31567 9.03748 8.4518 8.6391 8.22135C8.24072 7.9909 8.10458 7.48112 8.33503 7.08274C8.76604 6.33766 9.57367 5.83334 10.5001 5.83334C11.8808 5.83334 13.0001 6.95263 13.0001 8.33334C13.0001 9.24812 12.4389 9.99499 11.7501 10.4167C11.1967 10.7554 11.5417 11.6667 10.4979 11.6667C10.0376 11.6667 9.66455 11.2936 9.66455 10.8333C9.66455 10.8041 9.66606 10.7752 9.669 10.7467C9.69211 10.306 9.88863 9.94738 10.1026 9.68663C10.3286 9.41124 10.6257 9.18644 10.8529 9.05138C12.1168 8.30001 10.5752 6.76284 9.77771 7.91728ZM10.4979 12.5C10.0376 12.5 9.66455 12.8731 9.66455 13.3333C9.66455 13.7936 10.0376 14.1667 10.4979 14.1667C10.9581 14.1667 11.3312 13.7936 11.3312 13.3333C11.3312 12.8731 10.9581 12.5 10.4979 12.5Z" fill="#A5A5A5"/>
<path fill-rule="evenodd" clip-rule="evenodd" d="M9.13099 2.5H11.869C12.7722 2.49999 13.5006 2.49999 14.0905 2.54818C14.6979 2.59781 15.2314 2.70265 15.725 2.95414C16.509 3.35361 17.1464 3.99103 17.5459 4.77504C17.7973 5.26862 17.9022 5.80211 17.9518 6.40948C18 6.99938 18 7.72783 18 8.63097V11.369C18 12.2722 18 13.0006 17.9518 13.5905C17.9022 14.1979 17.7973 14.7314 17.5459 15.225C17.1464 16.009 16.509 16.6464 15.725 17.0459C15.2314 17.2973 14.6979 17.4022 14.0905 17.4518C13.5006 17.5 12.7722 17.5 11.869 17.5H9.13097C8.22783 17.5 7.49937 17.5 6.90948 17.4518C6.30211 17.4022 5.76862 17.2973 5.27504 17.0459C4.49103 16.6464 3.85361 16.009 3.45414 15.225C3.20265 14.7314 3.09781 14.1979 3.04818 13.5905C2.99999 13.0006 2.99999 12.2722 3 11.369V8.63099C2.99999 7.72784 2.99999 6.99938 3.04818 6.40948C3.09781 5.80211 3.20265 5.26862 3.45414 4.77504C3.85361 3.99103 4.49103 3.35361 5.27504 2.95414C5.76862 2.70265 6.30211 2.59781 6.90948 2.54818C7.49938 2.49999 8.22784 2.49999 9.13099 2.5ZM7.0452 4.20931C6.54089 4.25052 6.25115 4.32733 6.03169 4.43915C5.56129 4.67883 5.17883 5.06129 4.93915 5.53169C4.82733 5.75115 4.75052 6.04089 4.70931 6.5452C4.66732 7.05924 4.66667 7.7195 4.66667 8.66667V11.3333C4.66667 12.2805 4.66732 12.9408 4.70931 13.4548C4.75052 13.9591 4.82733 14.2488 4.93915 14.4683C5.17883 14.9387 5.56129 15.3212 6.03169 15.5609C6.25115 15.6727 6.54089 15.7495 7.0452 15.7907C7.55924 15.8327 8.2195 15.8333 9.16667 15.8333H11.8333C12.7805 15.8333 13.4408 15.8327 13.9548 15.7907C14.4591 15.7495 14.7488 15.6727 14.9683 15.5609C15.4387 15.3212 15.8212 14.9387 16.0609 14.4683C16.1727 14.2488 16.2495 13.9591 16.2907 13.4548C16.3327 12.9408 16.3333 12.2805 16.3333 11.3333V8.66667C16.3333 7.7195 16.3327 7.05924 16.2907 6.5452C16.2495 6.04089 16.1727 5.75115 16.0609 5.53169C15.8212 5.06129 15.4387 4.67883 14.9683 4.43915C14.7488 4.32733 14.4591 4.25052 13.9548 4.20931C13.4408 4.16732 12.7805 4.16667 11.8333 4.16667H9.16667C8.2195 4.16667 7.55924 4.16732 7.0452 4.20931Z" fill="#A5A5A5"/>
</svg>
