<svg width="19" height="20" viewBox="0 0 19 20" fill="none" xmlns="http://www.w3.org/2000/svg">
<path d="M4.5 9.5C3.90905 9.5 3.32389 9.3836 2.77792 9.15746C2.23196 8.93131 1.73588 8.59984 1.31802 8.18198C0.900156 7.76412 0.568688 7.26804 0.342542 6.72208C0.116396 6.17611 0 5.59095 0 5C0 4.40905 0.116396 3.82389 0.342542 3.27792C0.568688 2.73196 0.900156 2.23588 1.31802 1.81802C1.73588 1.40016 2.23196 1.06869 2.77792 0.842542C3.32389 0.616396 3.90905 0.5 4.5 0.5C5.69347 0.5 6.83807 0.974106 7.68198 1.81802C8.52589 2.66193 9 3.80653 9 5C9 6.19347 8.52589 7.33807 7.68198 8.18198C6.83807 9.02589 5.69347 9.5 4.5 9.5ZM4.5 19.5C3.30653 19.5 2.16193 19.0259 1.31802 18.182C0.474106 17.3381 0 16.1935 0 15C0 13.8065 0.474106 12.6619 1.31802 11.818C2.16193 10.9741 3.30653 10.5 4.5 10.5C5.69347 10.5 6.83807 10.9741 7.68198 11.818C8.52589 12.6619 9 13.8065 9 15C9 16.1935 8.52589 17.3381 7.68198 18.182C6.83807 19.0259 5.69347 19.5 4.5 19.5ZM14.5 9.5C13.9091 9.5 13.3239 9.3836 12.7779 9.15746C12.232 8.93131 11.7359 8.59984 11.318 8.18198C10.9002 7.76412 10.5687 7.26804 10.3425 6.72208C10.1164 6.17611 10 5.59095 10 5C10 4.40905 10.1164 3.82389 10.3425 3.27792C10.5687 2.73196 10.9002 2.23588 11.318 1.81802C11.7359 1.40016 12.232 1.06869 12.7779 0.842542C13.3239 0.616396 13.9091 0.5 14.5 0.5C15.6935 0.5 16.8381 0.974106 17.682 1.81802C18.5259 2.66193 19 3.80653 19 5C19 6.19347 18.5259 7.33807 17.682 8.18198C16.8381 9.02589 15.6935 9.5 14.5 9.5ZM14.5 19.5C13.3065 19.5 12.1619 19.0259 11.318 18.182C10.4741 17.3381 10 16.1935 10 15C10 13.8065 10.4741 12.6619 11.318 11.818C12.1619 10.9741 13.3065 10.5 14.5 10.5C15.6935 10.5 16.8381 10.9741 17.682 11.818C18.5259 12.6619 19 13.8065 19 15C19 16.1935 18.5259 17.3381 17.682 18.182C16.8381 19.0259 15.6935 19.5 14.5 19.5ZM4.5 7.5C5.16304 7.5 5.79893 7.23661 6.26777 6.76777C6.73661 6.29893 7 5.66304 7 5C7 4.33696 6.73661 3.70107 6.26777 3.23223C5.79893 2.76339 5.16304 2.5 4.5 2.5C3.83696 2.5 3.20107 2.76339 2.73223 3.23223C2.26339 3.70107 2 4.33696 2 5C2 5.66304 2.26339 6.29893 2.73223 6.76777C3.20107 7.23661 3.83696 7.5 4.5 7.5ZM4.5 17.5C5.16304 17.5 5.79893 17.2366 6.26777 16.7678C6.73661 16.2989 7 15.663 7 15C7 14.337 6.73661 13.7011 6.26777 13.2322C5.79893 12.7634 5.16304 12.5 4.5 12.5C3.83696 12.5 3.20107 12.7634 2.73223 13.2322C2.26339 13.7011 2 14.337 2 15C2 15.663 2.26339 16.2989 2.73223 16.7678C3.20107 17.2366 3.83696 17.5 4.5 17.5ZM14.5 7.5C15.163 7.5 15.7989 7.23661 16.2678 6.76777C16.7366 6.29893 17 5.66304 17 5C17 4.33696 16.7366 3.70107 16.2678 3.23223C15.7989 2.76339 15.163 2.5 14.5 2.5C13.837 2.5 13.2011 2.76339 12.7322 3.23223C12.2634 3.70107 12 4.33696 12 5C12 5.66304 12.2634 6.29893 12.7322 6.76777C13.2011 7.23661 13.837 7.5 14.5 7.5ZM14.5 17.5C15.163 17.5 15.7989 17.2366 16.2678 16.7678C16.7366 16.2989 17 15.663 17 15C17 14.337 16.7366 13.7011 16.2678 13.2322C15.7989 12.7634 15.163 12.5 14.5 12.5C13.837 12.5 13.2011 12.7634 12.7322 13.2322C12.2634 13.7011 12 14.337 12 15C12 15.663 12.2634 16.2989 12.7322 16.7678C13.2011 17.2366 13.837 17.5 14.5 17.5Z" fill="#A5A5A5"/>
</svg>
