<svg width="30" height="30" viewBox="0 0 30 30" fill="none" xmlns="http://www.w3.org/2000/svg">
<rect width="30" height="30" rx="15" fill="url(#paint0_linear_1168_270)"/>
<g clip-path="url(#clip0_1168_270)">
<mask id="mask0_1168_270" style="mask-type:alpha" maskUnits="userSpaceOnUse" x="7" y="8" width="16" height="13">
<path d="M13.6129 19.4251C13.5425 19.4955 13.4836 19.5493 13.4353 19.5902L12.842 17.9481L13.8871 17.8153L13.9719 16.9139C14.0385 16.8545 14.1312 16.7717 14.2455 16.6694C14.4912 16.4493 14.8367 16.139 15.2357 15.7778C16.0331 15.0559 17.0469 14.1287 17.9066 13.3122C18.3859 12.857 18.8219 12.4318 19.1468 12.0941C19.3086 11.926 19.4488 11.7733 19.5548 11.6461C19.6075 11.5829 19.6574 11.5191 19.6988 11.4584C19.7314 11.4105 19.7922 11.3175 19.8242 11.2052C19.8556 11.0953 19.8616 10.9499 19.7938 10.8036C19.7267 10.659 19.6142 10.5711 19.5144 10.5245C19.3322 10.4393 19.1572 10.467 19.0571 10.4974L19.042 10.5019L19.0272 10.5074C18.9657 10.53 18.8966 10.5667 18.8511 10.5913C18.7939 10.6222 18.7234 10.6621 18.643 10.7087C18.4816 10.8021 18.2689 10.9291 18.0194 11.0802C17.5198 11.3827 16.8639 11.7874 16.158 12.226C14.7459 13.1037 13.128 14.1212 12.1481 14.7388L11.8023 14.9568L11.9183 15.3488L11.9839 15.5701L11.9884 15.5854L11.9762 15.5517L11.86 15.2301L11.5569 15.2013L8.78239 14.2973C8.89619 14.2458 9.04155 14.1833 9.21614 14.1108C9.61229 13.9461 10.1439 13.7357 10.7667 13.4953C12.0113 13.0148 13.6072 12.4191 15.1835 11.8377C16.7593 11.2566 18.3135 10.6906 19.4739 10.2698C20.054 10.0594 20.5356 9.8854 20.8722 9.76397L21.2624 9.62333L21.3649 9.58641L21.3912 9.57697C21.3961 9.57545 21.4052 9.57273 21.4168 9.56956C21.4285 9.56636 21.4424 9.56281 21.4577 9.5593C21.4565 9.5787 21.4546 9.6027 21.4518 9.63705L21.4517 9.63825C21.4488 9.67359 21.4452 9.71719 21.442 9.7681C21.4265 10.0182 21.2848 10.7584 21.0607 11.79C20.8416 12.7981 20.5561 14.0318 20.2722 15.2305C19.9885 16.4287 19.707 17.5895 19.4965 18.451C19.3912 18.8817 19.3036 19.2374 19.2425 19.4854L19.1715 19.7726L19.1528 19.8478L19.1488 19.864C19.1476 19.8678 19.1451 19.8749 19.1414 19.8842C19.1321 19.9071 19.1183 19.9352 19.1008 19.9604C19.069 20.006 19.0533 20.0081 19.0399 20.0086C18.9946 20.0101 18.9494 20.0024 18.9071 19.986C18.8648 19.9696 18.8262 19.9449 18.7936 19.9133L18.782 19.902L18.7697 19.8914C18.2386 19.4346 17.0419 18.5867 15.963 17.8417L15.6241 17.6077L15.3089 17.8727C14.9735 18.1547 14.3045 18.7334 13.6129 19.4251ZM8.53345 14.3787C8.53344 14.3787 8.53346 14.3787 8.53345 14.3787V14.3787ZM8.25065 13.9629C8.0995 14.0678 8.04898 14.1288 8.02393 14.2004L8.25065 13.9629ZM21.609 9.54043C21.609 9.54044 21.6092 9.54045 21.609 9.54043V9.54043Z" fill="white"/>
<path d="M13.538 19.7505C13.538 19.7505 13.5373 19.75 13.5359 19.7486M21.4518 9.63705C21.4546 9.6027 21.4565 9.5787 21.4577 9.5593C21.4424 9.56281 21.4285 9.56636 21.4168 9.56956C21.4052 9.57273 21.3961 9.57545 21.3912 9.57697L21.3649 9.58641L21.2624 9.62333L20.8722 9.76397C20.5356 9.8854 20.054 10.0594 19.4739 10.2698C18.3135 10.6906 16.7593 11.2566 15.1835 11.8377C13.6072 12.4191 12.0113 13.0148 10.7667 13.4953C10.1439 13.7357 9.61229 13.9461 9.21614 14.1108C9.04155 14.1833 8.89619 14.2458 8.78239 14.2973L11.5569 15.2013L11.86 15.2301L11.9762 15.5517L11.9884 15.5854L11.9839 15.5701L11.9183 15.3488L11.8023 14.9568L12.1481 14.7388C13.128 14.1212 14.7459 13.1037 16.158 12.226C16.8639 11.7874 17.5198 11.3827 18.0194 11.0802C18.2689 10.9291 18.4816 10.8021 18.643 10.7087C18.7234 10.6621 18.7939 10.6222 18.8511 10.5913C18.8966 10.5667 18.9657 10.53 19.0272 10.5074L19.042 10.5019L19.0571 10.4974C19.1572 10.467 19.3322 10.4393 19.5144 10.5245C19.6142 10.5711 19.7267 10.659 19.7938 10.8036C19.8616 10.9499 19.8556 11.0953 19.8242 11.2052C19.7922 11.3175 19.7314 11.4105 19.6988 11.4584C19.6574 11.5191 19.6075 11.5829 19.5548 11.6461C19.4488 11.7733 19.3086 11.926 19.1468 12.0941C18.8219 12.4318 18.3859 12.857 17.9066 13.3122C17.0469 14.1287 16.0331 15.0559 15.2357 15.7778C14.8367 16.139 14.4912 16.4493 14.2455 16.6694C14.1312 16.7717 14.0385 16.8545 13.9719 16.9139L13.8871 17.8153L12.842 17.9481L13.4353 19.5902C13.4836 19.5493 13.5425 19.4955 13.6129 19.4251C14.3045 18.7334 14.9735 18.1547 15.3089 17.8727L15.6241 17.6077L15.963 17.8417C17.0419 18.5867 18.2386 19.4346 18.7697 19.8914L18.782 19.902L18.7936 19.9133C18.8262 19.9449 18.8648 19.9696 18.9071 19.986C18.9494 20.0024 18.9946 20.0101 19.0399 20.0086C19.0533 20.0081 19.069 20.006 19.1008 19.9604C19.1183 19.9352 19.1321 19.9071 19.1414 19.8842C19.1451 19.8749 19.1476 19.8678 19.1488 19.864L19.1528 19.8478L19.1715 19.7726L19.2425 19.4854C19.3036 19.2374 19.3912 18.8817 19.4965 18.451C19.707 17.5895 19.9885 16.4287 20.2722 15.2305C20.5561 14.0318 20.8416 12.7981 21.0607 11.79C21.2848 10.7584 21.4265 10.0182 21.442 9.7681C21.4452 9.71719 21.4488 9.67359 21.4517 9.63825L21.4518 9.63705ZM21.4518 9.63705L21.9898 9.68144M18.8159 10.8359C18.816 10.8358 18.815 10.8375 18.8128 10.8411M21.609 9.54043C21.6087 9.54041 21.6084 9.54036 21.6078 9.54028M21.609 9.54043C21.609 9.54044 21.6092 9.54045 21.609 9.54043ZM8.53345 14.3787C8.53344 14.3787 8.53346 14.3787 8.53345 14.3787ZM8.25065 13.9629C8.0995 14.0678 8.04898 14.1288 8.02393 14.2004L8.25065 13.9629Z" stroke="white" stroke-width="1.07961"/>
</mask>
<g mask="url(#mask0_1168_270)">
<path d="M24 6H6V24H24V6Z" fill="white"/>
</g>
</g>
<defs>
<linearGradient id="paint0_linear_1168_270" x1="0" y1="0" x2="30" y2="30" gradientUnits="userSpaceOnUse">
<stop stop-color="#AA0099"/>
<stop offset="1" stop-color="#CF3D69"/>
</linearGradient>
<clipPath id="clip0_1168_270">
<rect width="18" height="18" fill="white" transform="translate(6 6)"/>
</clipPath>
</defs>
</svg>
