<svg width="30" height="30" viewBox="0 0 30 30" fill="none" xmlns="http://www.w3.org/2000/svg">
<rect width="30" height="30" rx="15" fill="url(#paint0_linear_1168_262)"/>
<g clip-path="url(#clip0_1168_262)">
<mask id="mask0_1168_262" style="mask-type:alpha" maskUnits="userSpaceOnUse" x="8" y="9" width="14" height="12">
<path d="M20.5667 11.9044C20.5753 12.031 20.5753 12.1575 20.5753 12.2853C20.5753 16.1776 17.686 20.6667 12.4028 20.6667V20.6643C10.8421 20.6667 9.31383 20.2082 8 19.3438C8.22693 19.3717 8.45501 19.3857 8.68365 19.3863C9.97701 19.3875 11.2334 18.9424 12.2509 18.1229C11.0218 18.099 9.94402 17.2771 9.5675 16.0773C9.99805 16.1625 10.4417 16.145 10.8643 16.0265C9.52427 15.7489 8.56023 14.5415 8.56023 13.1392V13.1019C8.9595 13.33 9.40654 13.4565 9.86382 13.4705C8.60175 12.6055 8.21272 10.8836 8.97485 9.53737C10.4331 11.3777 12.5848 12.4964 14.8945 12.6148C14.663 11.5917 14.9792 10.5196 15.7254 9.80044C16.8823 8.68517 18.7018 8.74234 19.7892 9.92818C20.4325 9.7981 21.049 9.55603 21.6132 9.21306C21.3988 9.89493 20.9501 10.4741 20.3506 10.8422C20.9199 10.7734 21.4762 10.617 22 10.3785C21.6144 10.9711 21.1287 11.4873 20.5667 11.9044Z" fill="black"/>
</mask>
<g mask="url(#mask0_1168_262)">
<path d="M24 6H6V24H24V6Z" fill="white"/>
</g>
</g>
<defs>
<linearGradient id="paint0_linear_1168_262" x1="0" y1="0" x2="30" y2="30" gradientUnits="userSpaceOnUse">
<stop stop-color="#AA0099"/>
<stop offset="1" stop-color="#CF3D69"/>
</linearGradient>
<clipPath id="clip0_1168_262">
<rect width="18" height="18" fill="white" transform="translate(6 6)"/>
</clipPath>
</defs>
</svg>
