<svg width="20" height="18" viewBox="0 0 20 18" fill="none" xmlns="http://www.w3.org/2000/svg">
<path d="M19.1428 2.85716H6.5714M4.28569 2.85716H0.857117M19.1428 14.2857H6.5714M4.28569 14.2857H0.857117M13.4285 8.57144H0.857117M19.1428 8.57144H15.7143M5.42855 0.571442C5.73165 0.571442 6.02234 0.69185 6.23667 0.906177C6.45099 1.1205 6.5714 1.41119 6.5714 1.7143V4.00001C6.5714 4.30312 6.45099 4.59381 6.23667 4.80814C6.02234 5.02246 5.73165 5.14287 5.42855 5.14287C5.12544 5.14287 4.83475 5.02246 4.62042 4.80814C4.4061 4.59381 4.28569 4.30312 4.28569 4.00001V1.7143C4.28569 1.41119 4.4061 1.1205 4.62042 0.906177C4.83475 0.69185 5.12544 0.571442 5.42855 0.571442ZM5.42855 12C5.73165 12 6.02234 12.1204 6.23667 12.3347C6.45099 12.5491 6.5714 12.8398 6.5714 13.1429V15.4286C6.5714 15.7317 6.45099 16.0224 6.23667 16.2367C6.02234 16.451 5.73165 16.5714 5.42855 16.5714C5.12544 16.5714 4.83475 16.451 4.62042 16.2367C4.4061 16.0224 4.28569 15.7317 4.28569 15.4286V13.1429C4.28569 12.8398 4.4061 12.5491 4.62042 12.3347C4.83475 12.1204 5.12544 12 5.42855 12ZM14.5714 6.28573C14.8745 6.28573 15.1652 6.40614 15.3795 6.62046C15.5939 6.83479 15.7143 7.12548 15.7143 7.42858V9.7143C15.7143 10.0174 15.5939 10.3081 15.3795 10.5224C15.1652 10.7367 14.8745 10.8572 14.5714 10.8572C14.2683 10.8572 13.9776 10.7367 13.7633 10.5224C13.549 10.3081 13.4285 10.0174 13.4285 9.7143V7.42858C13.4285 7.12548 13.549 6.83479 13.7633 6.62046C13.9776 6.40614 14.2683 6.28573 14.5714 6.28573Z" stroke="#374151" stroke-linecap="round" stroke-linejoin="round"/>
</svg>
