<svg width="24" height="24" viewBox="0 0 24 24" fill="none" xmlns="http://www.w3.org/2000/svg">
<path d="M21.1428 6.85716H8.5714M6.28569 6.85716H2.85712M21.1428 18.2857H8.5714M6.28569 18.2857H2.85712M15.4285 12.5714H2.85712M21.1428 12.5714H17.7143M7.42855 4.57144C7.73165 4.57144 8.02234 4.69185 8.23667 4.90618C8.45099 5.1205 8.5714 5.41119 8.5714 5.7143V8.00001C8.5714 8.30312 8.45099 8.59381 8.23667 8.80814C8.02234 9.02246 7.73165 9.14287 7.42855 9.14287C7.12544 9.14287 6.83475 9.02246 6.62042 8.80814C6.4061 8.59381 6.28569 8.30312 6.28569 8.00001V5.7143C6.28569 5.41119 6.4061 5.1205 6.62042 4.90618C6.83475 4.69185 7.12544 4.57144 7.42855 4.57144ZM7.42855 16C7.73165 16 8.02234 16.1204 8.23667 16.3347C8.45099 16.5491 8.5714 16.8398 8.5714 17.1429V19.4286C8.5714 19.7317 8.45099 20.0224 8.23667 20.2367C8.02234 20.451 7.73165 20.5714 7.42855 20.5714C7.12544 20.5714 6.83475 20.451 6.62042 20.2367C6.4061 20.0224 6.28569 19.7317 6.28569 19.4286V17.1429C6.28569 16.8398 6.4061 16.5491 6.62042 16.3347C6.83475 16.1204 7.12544 16 7.42855 16ZM16.5714 10.2857C16.8745 10.2857 17.1652 10.4061 17.3795 10.6205C17.5939 10.8348 17.7143 11.1255 17.7143 11.4286V13.7143C17.7143 14.0174 17.5939 14.3081 17.3795 14.5224C17.1652 14.7367 16.8745 14.8572 16.5714 14.8572C16.2683 14.8572 15.9776 14.7367 15.7633 14.5224C15.549 14.3081 15.4285 14.0174 15.4285 13.7143V11.4286C15.4285 11.1255 15.549 10.8348 15.7633 10.6205C15.9776 10.4061 16.2683 10.2857 16.5714 10.2857Z" stroke="#374151" stroke-linecap="round" stroke-linejoin="round"/>
</svg>
