<svg width="22" height="22" viewBox="0 0 22 22" fill="none" xmlns="http://www.w3.org/2000/svg">
<path d="M8 16.25C7.80109 16.25 7.61032 16.329 7.46967 16.4697C7.32902 16.6103 7.25 16.8011 7.25 17C7.25 17.1989 7.32902 17.3897 7.46967 17.5303C7.61032 17.671 7.80109 17.75 8 17.75H14C14.1989 17.75 14.3897 17.671 14.5303 17.5303C14.671 17.3897 14.75 17.1989 14.75 17C14.75 16.8011 14.671 16.6103 14.5303 16.4697C14.3897 16.329 14.1989 16.25 14 16.25H8Z" fill="#A5A5A5" />
<path fill-rule="evenodd" clip-rule="evenodd" d="M11 0.25C10.275 0.25 9.61301 0.45 8.89001 0.787C8.18801 1.114 7.37801 1.597 6.36201 2.202L4.90601 3.069C3.78701 3.736 2.89601 4.267 2.22001 4.775C1.52301 5.3 1.00001 5.84 0.66001 6.551C0.31801 7.262 0.22601 8.007 0.25501 8.876C0.28401 9.717 0.43101 10.74 0.61501 12.022L0.90801 14.054C1.14501 15.704 1.33401 17.013 1.61501 18.032C1.90501 19.082 2.31701 19.917 3.06001 20.556C3.80201 21.196 4.69001 21.481 5.77601 21.618C6.83201 21.75 8.16301 21.75 9.84201 21.75H12.158C13.838 21.75 15.168 21.75 16.224 21.618C17.31 21.481 18.198 21.196 18.94 20.557C19.683 19.917 20.095 19.083 20.385 18.032C20.666 17.012 20.855 15.704 21.092 14.054L21.384 12.022C21.569 10.74 21.716 9.717 21.744 8.876C21.774 8.006 21.682 7.262 21.341 6.551C21 5.84 20.477 5.3 19.78 4.775C19.105 4.267 18.213 3.736 17.094 3.069L15.638 2.202C14.622 1.597 13.812 1.114 13.111 0.787C12.387 0.449 11.725 0.25 11 0.25ZM7.09601 3.511C8.15301 2.881 8.89901 2.438 9.52401 2.146C10.133 1.862 10.571 1.75 11 1.75C11.43 1.75 11.867 1.862 12.476 2.146C13.101 2.438 13.846 2.881 14.904 3.511L16.289 4.336C17.454 5.03 18.275 5.52 18.879 5.974C19.466 6.417 19.789 6.783 19.989 7.199C20.188 7.615 20.271 8.093 20.246 8.825C20.22 9.575 20.086 10.516 19.894 11.851L19.614 13.788C19.368 15.502 19.192 16.716 18.939 17.633C18.692 18.529 18.394 19.048 17.962 19.42C17.529 19.793 16.968 20.013 16.037 20.13C15.086 20.249 13.849 20.25 12.107 20.25H9.89401C8.15101 20.25 6.91401 20.249 5.96301 20.13C5.03301 20.013 4.47101 19.793 4.03801 19.42C3.60601 19.048 3.30801 18.529 3.06101 17.633C2.80801 16.716 2.63101 15.502 2.38501 13.788L2.10601 11.851C1.91401 10.516 1.78001 9.574 1.75401 8.825C1.72901 8.093 1.81201 7.615 2.01201 7.199C2.21201 6.783 2.53301 6.417 3.12201 5.974C3.72501 5.52 4.54601 5.03 5.71101 4.336L7.09601 3.511Z" fill="#A5A5A5"/>
</svg>
