<svg width="24" height="18" viewBox="0 0 24 18" fill="none" xmlns="http://www.w3.org/2000/svg">
<path d="M4.89998 16.1C0.999976 12.2 0.999976 5.8 4.89998 1.9M7.79998 13.2C5.49998 10.9 5.49998 7.1 7.79998 4.7" stroke="#A5A5A5" stroke-width="2" stroke-linecap="round" stroke-linejoin="round"/>
<path d="M12 11C13.1046 11 14 10.1046 14 9C14 7.89543 13.1046 7 12 7C10.8954 7 10 7.89543 10 9C10 10.1046 10.8954 11 12 11Z" stroke="#A5A5A5" stroke-width="2" stroke-linecap="round" stroke-linejoin="round"/>
<path d="M16.2 4.8C18.5 7.1 18.5 10.9 16.2 13.3M19.1 1.9C23 5.8 23 12.1 19.1 16" stroke="#A5A5A5" stroke-width="2" stroke-linecap="round" stroke-linejoin="round"/>
</svg>
