<svg width="24" height="24" viewBox="0 0 24 24" fill="none" xmlns="http://www.w3.org/2000/svg">
<path d="M18 20.75H15C14.8011 20.75 14.6103 20.671 14.4697 20.5303C14.329 20.3897 14.25 20.1989 14.25 20C14.25 19.8011 14.329 19.6103 14.4697 19.4697C14.6103 19.329 14.8011 19.25 15 19.25H18C18.2969 19.2758 18.5924 19.1864 18.8251 19.0002C19.0579 18.814 19.21 18.5454 19.25 18.25V5.78C19.21 5.48465 19.0579 5.21602 18.8251 5.02983C18.5924 4.84365 18.2969 4.75418 18 4.78H15C14.8011 4.78 14.6103 4.70099 14.4697 4.56033C14.329 4.41968 14.25 4.22892 14.25 4.03C14.25 3.83109 14.329 3.64033 14.4697 3.49967C14.6103 3.35902 14.8011 3.28 15 3.28H18C18.3468 3.26525 18.693 3.31902 19.019 3.43824C19.3449 3.55745 19.6442 3.73977 19.8996 3.97476C20.155 4.20975 20.3616 4.4928 20.5075 4.80771C20.6535 5.12262 20.7359 5.46322 20.75 5.81V18.22C20.7359 18.5668 20.6535 18.9074 20.5075 19.2223C20.3616 19.5372 20.155 19.8203 19.8996 20.0552C19.6442 20.2902 19.3449 20.4726 19.019 20.5918C18.693 20.711 18.3468 20.7648 18 20.75Z" fill="#A5A5A5"/>
<path d="M11 16.75C10.9014 16.7505 10.8038 16.7312 10.7128 16.6935C10.6217 16.6557 10.5392 16.6001 10.47 16.53C10.3295 16.3894 10.2506 16.1987 10.2506 16C10.2506 15.8012 10.3295 15.6106 10.47 15.47L13.9399 12L10.47 8.53C10.3375 8.38782 10.2653 8.19978 10.2688 8.00548C10.2722 7.81118 10.3509 7.62579 10.4883 7.48838C10.6257 7.35096 10.8111 7.27225 11.0054 7.26882C11.1997 7.2654 11.3878 7.33752 11.53 7.47L15.53 11.47C15.6704 11.6106 15.7493 11.8012 15.7493 12C15.7493 12.1987 15.6704 12.3894 15.53 12.53L11.53 16.53C11.4607 16.6001 11.3782 16.6557 11.2871 16.6935C11.1961 16.7312 11.0985 16.7505 11 16.75Z" fill="#A5A5A5"/>
<path d="M15 12.75H4C3.80109 12.75 3.61032 12.671 3.46967 12.5303C3.32902 12.3897 3.25 12.1989 3.25 12C3.25 11.8011 3.32902 11.6103 3.46967 11.4697C3.61032 11.329 3.80109 11.25 4 11.25H15C15.1989 11.25 15.3897 11.329 15.5303 11.4697C15.671 11.6103 15.75 11.8011 15.75 12C15.75 12.1989 15.671 12.3897 15.5303 12.5303C15.3897 12.671 15.1989 12.75 15 12.75Z" fill="#A5A5A5"/>
</svg>
