<svg width="25" height="24" viewBox="0 0 25 24" fill="none" xmlns="http://www.w3.org/2000/svg">
<path fill-rule="evenodd" clip-rule="evenodd" d="M6.20921 14.02C6.25218 14.0343 6.29636 14.0447 6.34121 14.051C6.62414 14.7176 6.90547 15.385 7.18521 16.053C7.68821 17.255 8.19521 18.493 8.30621 18.849C8.44521 19.287 8.59121 19.585 8.75121 19.789C8.83421 19.893 8.92921 19.985 9.04121 20.055C9.09956 20.0915 9.16198 20.121 9.22721 20.143C9.54721 20.263 9.83921 20.213 10.0222 20.152C10.1296 20.1153 10.2318 20.0649 10.3262 20.002L10.3312 20L13.1572 18.238L16.4222 20.74C16.4702 20.777 16.5222 20.808 16.5782 20.833C16.9702 21.003 17.3502 21.063 17.7082 21.015C18.0642 20.965 18.3472 20.816 18.5582 20.647C18.8005 20.4517 18.9937 20.2024 19.1222 19.919L19.1312 19.897L19.1342 19.889L19.1362 19.885V19.883L19.1372 19.882C19.1546 19.839 19.168 19.7945 19.1772 19.749L22.1572 4.72399C22.1666 4.67589 22.1713 4.62699 22.1712 4.57799C22.1712 4.13799 22.0052 3.71899 21.6162 3.46599C21.2822 3.24899 20.9112 3.23899 20.6762 3.25699C20.4242 3.27699 20.1902 3.33899 20.0332 3.38899C19.9453 3.41684 19.8586 3.4482 19.7732 3.48299L19.7622 3.48799L3.04821 10.044L3.04621 10.045C2.98966 10.0658 2.93395 10.0888 2.87921 10.114C2.74668 10.1736 2.61954 10.2445 2.49921 10.326C2.27221 10.481 1.74921 10.907 1.83821 11.611C1.90821 12.171 2.29221 12.516 2.52721 12.682C2.65521 12.773 2.77721 12.838 2.86721 12.881C2.90721 12.901 2.99321 12.935 3.03021 12.951L3.04021 12.954L6.20921 14.02ZM20.3472 4.86799H20.3452C20.3366 4.87181 20.3279 4.87548 20.3192 4.87899L3.58521 11.444C3.5766 11.4475 3.56794 11.4508 3.55921 11.454L3.54921 11.457C3.51864 11.469 3.48862 11.4823 3.45921 11.497C3.48705 11.5129 3.51576 11.5273 3.54521 11.54L6.68721 12.598C6.74336 12.6169 6.79707 12.6424 6.84721 12.674L17.2242 6.59899L17.2342 6.59399C17.2745 6.56949 17.3159 6.5468 17.3582 6.52599C17.4302 6.48899 17.5452 6.43499 17.6752 6.39499C17.7652 6.36699 18.0322 6.28799 18.3202 6.38099C18.473 6.42914 18.6091 6.51927 18.7131 6.64111C18.8171 6.76294 18.8847 6.91156 18.9082 7.06999C18.9455 7.20874 18.9465 7.35472 18.9112 7.49399C18.8412 7.76899 18.6492 7.98299 18.4732 8.14699C18.3232 8.28699 16.3782 10.163 14.4592 12.015L11.8462 14.535L11.3812 14.985L17.2532 19.487C17.3325 19.5203 17.4185 19.534 17.5042 19.527C17.5474 19.5211 17.588 19.5031 17.6212 19.475C17.6618 19.4408 17.6965 19.4002 17.7242 19.355L17.7262 19.354L20.6162 4.78099C20.5252 4.80288 20.4359 4.83163 20.3492 4.86699L20.3472 4.86799ZM11.8862 17.262L10.7142 16.364L10.4302 18.169L11.8862 17.262ZM9.63921 14.582L10.8042 13.457L13.4172 10.935L14.3902 9.99699L7.87021 13.814L7.90521 13.896C8.31642 14.8674 8.72309 15.8408 9.12521 16.816L9.40821 15.016C9.43382 14.849 9.51525 14.6967 9.63921 14.582Z" fill="#333333"/>
</svg>
