<svg width="21" height="19" viewBox="0 0 21 19" fill="none" xmlns="http://www.w3.org/2000/svg">
<path fill-rule="evenodd" clip-rule="evenodd" d="M4.78795 11.02C4.83092 11.0343 4.8751 11.0447 4.91995 11.051C5.20287 11.7176 5.4842 12.385 5.76395 13.053C6.26695 14.255 6.77395 15.493 6.88495 15.849C7.02395 16.287 7.16995 16.585 7.32995 16.789C7.41295 16.893 7.50795 16.985 7.61995 17.055C7.67829 17.0915 7.74072 17.121 7.80595 17.143C8.12595 17.263 8.41795 17.213 8.60095 17.152C8.70834 17.1153 8.81052 17.0649 8.90495 17.002L8.90995 17L11.7359 15.238L15.0009 17.74C15.0489 17.777 15.1009 17.808 15.1569 17.833C15.5489 18.003 15.9289 18.063 16.2869 18.015C16.643 17.965 16.9259 17.816 17.1369 17.647C17.3792 17.4517 17.5724 17.2024 17.7009 16.919L17.7099 16.897L17.7129 16.889L17.7149 16.885V16.883L17.7159 16.882C17.7333 16.839 17.7467 16.7945 17.7559 16.749L20.7359 1.72399C20.7454 1.67589 20.75 1.62699 20.7499 1.57799C20.7499 1.13799 20.5839 0.718986 20.1949 0.465986C19.8609 0.248986 19.4899 0.238986 19.2549 0.256986C19.0029 0.276986 18.7689 0.338986 18.6119 0.388986C18.5241 0.416841 18.4373 0.448199 18.3519 0.482986L18.3409 0.487986L1.62695 7.04399L1.62495 7.04499C1.5684 7.06579 1.51269 7.0888 1.45795 7.11399C1.32541 7.17357 1.19827 7.2445 1.07795 7.32599C0.850948 7.48099 0.327948 7.90699 0.416948 8.61099C0.486948 9.17099 0.870948 9.51599 1.10595 9.68199C1.23395 9.77299 1.35595 9.83799 1.44595 9.88099C1.48595 9.90099 1.57195 9.93499 1.60895 9.95099L1.61895 9.95399L4.78795 11.02ZM18.9259 1.86799H18.9239C18.9153 1.87181 18.9067 1.87548 18.8979 1.87899L2.16395 8.44399C2.15534 8.44747 2.14667 8.4508 2.13795 8.45399L2.12795 8.45699C2.09738 8.469 2.06735 8.48235 2.03795 8.49699C2.06578 8.51293 2.09449 8.52728 2.12395 8.53999L5.26595 9.59799C5.3221 9.61691 5.3758 9.64242 5.42595 9.67399L15.8029 3.59899L15.8129 3.59399C15.8533 3.56949 15.8946 3.5468 15.9369 3.52599C16.0089 3.48899 16.1239 3.43499 16.2539 3.39499C16.3439 3.36699 16.6109 3.28799 16.8989 3.38099C17.0517 3.42914 17.1878 3.51927 17.2918 3.64111C17.3958 3.76294 17.4634 3.91156 17.4869 4.06999C17.5242 4.20874 17.5252 4.35472 17.4899 4.49399C17.4199 4.76899 17.2279 4.98299 17.0519 5.14699C16.9019 5.28699 14.9569 7.16299 13.0379 9.01499L10.4249 11.535L9.95995 11.985L15.8319 16.487C15.9112 16.5203 15.9973 16.534 16.0829 16.527C16.1261 16.5211 16.1667 16.5031 16.1999 16.475C16.2405 16.4408 16.2753 16.4002 16.3029 16.355L16.3049 16.354L19.1949 1.78099C19.1039 1.80288 19.0147 1.83163 18.9279 1.86699L18.9259 1.86799ZM10.4649 14.262L9.29295 13.364L9.00895 15.169L10.4649 14.262ZM8.21795 11.582L9.38295 10.457L11.9959 7.93499L12.9689 6.99699L6.44895 10.814L6.48395 10.896C6.89515 11.8674 7.30182 12.8408 7.70395 13.816L7.98695 12.016C8.01256 11.849 8.09399 11.6967 8.21795 11.582Z" fill="#A5A5A5"/>
</svg>
