<svg width="25" height="24" viewBox="0 0 25 24" fill="none" xmlns="http://www.w3.org/2000/svg">
<path fill-rule="evenodd" clip-rule="evenodd" d="M15.4421 3.343C15.9511 3.256 16.5201 3.227 17.0561 3.318C18.0108 3.47927 18.8954 3.92263 19.5961 4.591C20.0521 4.601 20.5011 4.511 20.8981 4.383C21.2817 4.25787 21.6501 4.0898 21.9961 3.882L22.0051 3.876C22.1491 3.78005 22.3218 3.73685 22.494 3.75372C22.6662 3.77059 22.8273 3.84648 22.95 3.96854C23.0726 4.0906 23.1493 4.25132 23.167 4.42345C23.1847 4.59558 23.1423 4.76854 23.0471 4.913C22.8401 5.228 22.5511 5.79 22.2281 6.42L22.0731 6.721C21.8881 7.081 21.6981 7.445 21.5211 7.757C21.4101 7.953 21.2911 8.152 21.1711 8.324V8.598C21.1834 10.2366 20.8692 11.8613 20.2468 13.3772C19.6244 14.8931 18.7064 16.2699 17.5462 17.4272C16.3861 18.5845 15.007 19.4991 13.4896 20.1176C11.9721 20.7362 10.3467 21.0464 8.70806 21.03C6.3335 21.0322 4.00891 20.348 2.01406 19.06C1.87147 18.9678 1.7644 18.8299 1.71037 18.6689C1.65633 18.5079 1.65853 18.3334 1.7166 18.1738C1.77467 18.0142 1.88518 17.8791 2.03004 17.7904C2.1749 17.7018 2.34554 17.665 2.51406 17.686C3.89192 17.8507 5.28843 17.6284 6.54706 17.044C5.93299 16.7648 5.38378 16.3609 4.93442 15.8578C4.48506 15.3547 4.1454 14.7636 3.93706 14.122C3.89736 13.9992 3.89003 13.8682 3.91578 13.7417C3.94153 13.6152 3.99949 13.4975 4.08406 13.4L4.09406 13.39C3.58644 12.9378 3.17962 12.3838 2.90001 11.7641C2.6204 11.1444 2.47425 10.4728 2.47106 9.793V9.741C2.47098 9.57635 2.52509 9.41626 2.62503 9.28541C2.72497 9.15457 2.86519 9.06024 3.02406 9.017C2.68543 8.34134 2.50974 7.59576 2.51106 6.84C2.51049 5.98317 2.73461 5.14117 3.16106 4.398C3.22164 4.2925 3.30698 4.20333 3.40972 4.13816C3.51245 4.073 3.6295 4.03381 3.75075 4.02397C3.87201 4.01413 3.99384 4.03393 4.10574 4.08167C4.21764 4.12941 4.31625 4.20365 4.39306 4.298C6.14225 6.45293 8.64824 7.85866 11.3991 8.228C11.3752 7.32818 11.6022 6.43947 12.0546 5.66133C12.5071 4.88319 13.1672 4.24632 13.9611 3.822C14.3631 3.608 14.8951 3.437 15.4431 3.343H15.4421ZM4.16406 10.891C4.35824 11.4375 4.69099 11.9243 5.12974 12.3036C5.56849 12.6829 6.09821 12.9418 6.66706 13.055C6.83094 13.0876 6.97923 13.1741 7.08839 13.3006C7.19755 13.4272 7.26133 13.5865 7.2696 13.7534C7.27787 13.9203 7.23016 14.0852 7.13405 14.2219C7.03793 14.3586 6.89891 14.4593 6.73906 14.508C6.46706 14.591 6.18806 14.648 5.90506 14.681C6.2123 15.0773 6.60441 15.3998 7.0526 15.6248C7.50079 15.8497 7.99367 15.9715 8.49506 15.981C8.64971 15.9839 8.79968 16.0346 8.92442 16.126C9.04916 16.2175 9.14257 16.3453 9.19185 16.4919C9.24112 16.6386 9.24386 16.7968 9.19968 16.9451C9.1555 17.0933 9.06656 17.2243 8.94506 17.32C7.90231 18.1405 6.69053 18.7194 5.39706 19.015C6.46792 19.3578 7.58567 19.5315 8.71005 19.53H8.71906C10.1591 19.5452 11.5877 19.2732 12.9214 18.7301C14.2551 18.1869 15.4672 17.3833 16.4868 16.3664C17.5065 15.3494 18.3133 14.1395 18.86 12.8072C19.4067 11.4749 19.6824 10.047 19.6711 8.607V8.072C19.6709 7.88989 19.737 7.71394 19.8571 7.577C19.9271 7.498 20.0471 7.316 20.2171 7.017C20.3771 6.735 20.5551 6.395 20.7401 6.036L20.7731 5.97C20.2507 6.08755 19.7128 6.1203 19.1801 6.067C18.9999 6.04737 18.8329 5.96319 18.7101 5.83C18.2072 5.28468 17.5375 4.9217 16.8061 4.798C16.4372 4.74581 16.0622 4.75426 15.6961 4.823C15.3391 4.87855 14.9926 4.98744 14.6681 5.146C14.0137 5.4956 13.4939 6.05252 13.1903 6.72939C12.8866 7.40626 12.8161 8.16479 12.9901 8.886C13.0174 8.9994 13.018 9.11763 12.9916 9.23128C12.9653 9.34494 12.9128 9.45088 12.8383 9.54068C12.7639 9.63049 12.6695 9.70168 12.5627 9.74861C12.4559 9.79554 12.3396 9.8169 12.2231 9.811C9.15064 9.65559 6.24591 8.36274 4.07406 6.184C4.03186 6.40045 4.01076 6.62048 4.01106 6.841V6.843C4.00993 7.39374 4.14502 7.93622 4.40428 8.42213C4.66355 8.90803 5.03895 9.32228 5.49706 9.628C5.63158 9.71854 5.73314 9.85025 5.78651 10.0034C5.83987 10.1565 5.84217 10.3228 5.79306 10.4773C5.74395 10.6319 5.64607 10.7663 5.5141 10.8606C5.38213 10.9548 5.22317 11.0037 5.06106 11C4.75926 10.9916 4.45893 10.9558 4.16406 10.891Z" fill="#333333"/>
</svg>
