<svg width="24" height="24" viewBox="0 0 24 24" fill="none" xmlns="http://www.w3.org/2000/svg">
<path fill-rule="evenodd" clip-rule="evenodd" d="M15.021 3.343C15.53 3.256 16.099 3.227 16.635 3.318C17.5898 3.47927 18.4744 3.92263 19.175 4.591C19.631 4.601 20.08 4.511 20.477 4.383C20.8607 4.25787 21.229 4.0898 21.575 3.882L21.584 3.876C21.728 3.78005 21.9008 3.73685 22.073 3.75372C22.2452 3.77059 22.4063 3.84648 22.5289 3.96854C22.6516 4.0906 22.7282 4.25132 22.7459 4.42345C22.7636 4.59558 22.7213 4.76854 22.626 4.913C22.419 5.228 22.13 5.79 21.807 6.42L21.652 6.721C21.467 7.081 21.277 7.445 21.1 7.757C20.989 7.953 20.87 8.152 20.75 8.324V8.598C20.7623 10.2366 20.4481 11.8613 19.8258 13.3772C19.2034 14.8931 18.2853 16.2699 17.1252 17.4272C15.965 18.5845 14.586 19.4991 13.0685 20.1176C11.5511 20.7362 9.92561 21.0464 8.287 21.03C5.91245 21.0322 3.58786 20.348 1.593 19.06C1.45042 18.9678 1.34335 18.8299 1.28932 18.6689C1.23528 18.5079 1.23748 18.3334 1.29555 18.1738C1.35362 18.0142 1.46412 17.8791 1.60899 17.7904C1.75385 17.7018 1.92449 17.665 2.093 17.686C3.47087 17.8507 4.86738 17.6284 6.126 17.044C5.51194 16.7648 4.96273 16.3609 4.51337 15.8578C4.06401 15.3547 3.72435 14.7636 3.516 14.122C3.47631 13.9992 3.46898 13.8682 3.49473 13.7417C3.52048 13.6152 3.57844 13.4975 3.663 13.4L3.673 13.39C3.16539 12.9378 2.75857 12.3838 2.47896 11.7641C2.19935 11.1444 2.0532 10.4728 2.05 9.793V9.741C2.04993 9.57635 2.10404 9.41626 2.20398 9.28541C2.30392 9.15457 2.44414 9.06024 2.603 9.017C2.26438 8.34134 2.08869 7.59576 2.09 6.84C2.08944 5.98317 2.31356 5.14117 2.74 4.398C2.80059 4.2925 2.88593 4.20333 2.98867 4.13816C3.0914 4.073 3.20845 4.03381 3.3297 4.02397C3.45096 4.01413 3.57279 4.03393 3.68469 4.08167C3.79659 4.12941 3.8952 4.20365 3.972 4.298C5.72119 6.45293 8.22719 7.85866 10.978 8.228C10.9541 7.32818 11.1811 6.43947 11.6336 5.66133C12.0861 4.88319 12.7462 4.24632 13.54 3.822C13.942 3.608 14.474 3.437 15.022 3.343H15.021ZM3.743 10.891C3.93719 11.4375 4.26994 11.9243 4.70869 12.3036C5.14744 12.6829 5.67716 12.9418 6.246 13.055C6.40989 13.0876 6.55818 13.1741 6.66734 13.3006C6.7765 13.4272 6.84028 13.5865 6.84855 13.7534C6.85682 13.9203 6.80911 14.0852 6.713 14.2219C6.61688 14.3586 6.47786 14.4593 6.318 14.508C6.046 14.591 5.767 14.648 5.484 14.681C5.79125 15.0773 6.18336 15.3998 6.63155 15.6248C7.07974 15.8497 7.57262 15.9715 8.074 15.981C8.22866 15.9839 8.37863 16.0346 8.50337 16.126C8.62811 16.2175 8.72152 16.3453 8.77079 16.4919C8.82007 16.6386 8.82281 16.7968 8.77863 16.9451C8.73445 17.0933 8.64551 17.2243 8.524 17.32C7.48125 18.1405 6.26948 18.7194 4.976 19.015C6.04687 19.3578 7.16462 19.5315 8.289 19.53H8.298C9.73802 19.5452 11.1666 19.2732 12.5003 18.7301C13.8341 18.1869 15.0462 17.3833 16.0658 16.3664C17.0854 15.3494 17.8922 14.1395 18.4389 12.8072C18.9856 11.4749 19.2614 10.047 19.25 8.607V8.072C19.2499 7.88989 19.316 7.71394 19.436 7.577C19.506 7.498 19.626 7.316 19.796 7.017C19.956 6.735 20.134 6.395 20.319 6.036L20.352 5.97C19.8296 6.08755 19.2918 6.1203 18.759 6.067C18.5788 6.04737 18.4119 5.96319 18.289 5.83C17.7861 5.28468 17.1164 4.9217 16.385 4.798C16.0161 4.74581 15.6412 4.75426 15.275 4.823C14.9181 4.87855 14.5716 4.98744 14.247 5.146C13.5927 5.4956 13.0729 6.05252 12.7692 6.72939C12.4655 7.40626 12.3951 8.16479 12.569 8.886C12.5964 8.9994 12.5969 9.11763 12.5706 9.23128C12.5442 9.34494 12.4917 9.45088 12.4173 9.54068C12.3428 9.63049 12.2484 9.70168 12.1416 9.74861C12.0348 9.79554 11.9185 9.8169 11.802 9.811C8.72959 9.65559 5.82486 8.36274 3.653 6.184C3.61081 6.40045 3.58971 6.62048 3.59 6.841V6.843C3.58888 7.39374 3.72397 7.93622 3.98323 8.42213C4.2425 8.90803 4.6179 9.32228 5.076 9.628C5.21053 9.71854 5.31209 9.85025 5.36545 10.0034C5.41882 10.1565 5.42112 10.3228 5.37201 10.4773C5.3229 10.6319 5.22502 10.7663 5.09305 10.8606C4.96108 10.9548 4.80212 11.0037 4.64 11C4.33821 10.9916 4.03788 10.9558 3.743 10.891Z" fill="#A5A5A5"/>
</svg>
