<svg width="27" height="31" viewBox="0 0 27 31" fill="none" xmlns="http://www.w3.org/2000/svg">
<path d="M9.92179 25.4641L11.4156 24.6091C12.3689 24.0646 12.8446 23.7934 13.3674 23.7934C13.8902 23.7934 14.3659 24.0646 15.3172 24.6091L16.813 25.4641C21.0723 27.8975 23.201 29.1141 24.2585 28.1667C25.314 27.2174 24.3312 24.9688 22.3657 20.4755L16.9683 8.13977C15.4253 4.61161 14.6529 2.84655 13.3674 2.84655C12.0819 2.84655 11.3095 4.61161 9.76651 8.13977L4.36911 20.4755C2.40356 24.9688 1.42079 27.2174 2.47629 28.1667C3.53179 29.1141 5.66048 27.8975 9.92179 25.4641Z" stroke="white" stroke-width="4"/>
</svg>
