<svg width="25" height="24" viewBox="0 0 25 24" fill="none" xmlns="http://www.w3.org/2000/svg">
<path d="M4.02114 9H20.8211M4.02114 15H20.8211M3.42114 12C3.42114 13.1819 3.65393 14.3522 4.10623 15.4442C4.55852 16.5361 5.22145 17.5282 6.05718 18.364C6.89291 19.1997 7.88506 19.8626 8.97699 20.3149C10.0689 20.7672 11.2392 21 12.4211 21C13.603 21 14.7734 20.7672 15.8653 20.3149C16.9572 19.8626 17.9494 19.1997 18.7851 18.364C19.6208 17.5282 20.2838 16.5361 20.7361 15.4442C21.1884 14.3522 21.4211 13.1819 21.4211 12C21.4211 9.61305 20.4729 7.32387 18.7851 5.63604C17.0973 3.94821 14.8081 3 12.4211 3C10.0342 3 7.74501 3.94821 6.05718 5.63604C4.36935 7.32387 3.42114 9.61305 3.42114 12Z" stroke="#111111" stroke-width="2" stroke-linecap="round" stroke-linejoin="round"/>
<path d="M11.9211 3C10.2364 5.69961 9.34326 8.81787 9.34326 12C9.34326 15.1821 10.2364 18.3004 11.9211 21M12.9211 3C14.6057 5.69961 15.4989 8.81787 15.4989 12C15.4989 15.1821 14.6057 18.3004 12.9211 21" stroke="#111111" stroke-width="2" stroke-linecap="round" stroke-linejoin="round"/>
</svg>
