<svg width="21" height="20" viewBox="0 0 21 20" fill="none" xmlns="http://www.w3.org/2000/svg">
<path d="M2.02114 7H18.8211M2.02114 13H18.8211M1.42114 10C1.42114 11.1819 1.65393 12.3522 2.10623 13.4442C2.55852 14.5361 3.22145 15.5282 4.05718 16.364C4.89291 17.1997 5.88506 17.8626 6.97699 18.3149C8.06892 18.7672 9.23925 19 10.4211 19C11.603 19 12.7734 18.7672 13.8653 18.3149C14.9572 17.8626 15.9494 17.1997 16.7851 16.364C17.6208 15.5282 18.2838 14.5361 18.7361 13.4442C19.1884 12.3522 19.4211 11.1819 19.4211 10C19.4211 7.61305 18.4729 5.32387 16.7851 3.63604C15.0973 1.94821 12.8081 1 10.4211 1C8.03419 1 5.74501 1.94821 4.05718 3.63604C2.36935 5.32387 1.42114 7.61305 1.42114 10Z" stroke="#A5A5A5" stroke-width="2" stroke-linecap="round" stroke-linejoin="round"/>
<path d="M9.92106 1C8.2364 3.69961 7.34326 6.81787 7.34326 10C7.34326 13.1821 8.2364 16.3004 9.92106 19M10.9211 1C12.6057 3.69961 13.4989 6.81787 13.4989 10C13.4989 13.1821 12.6057 16.3004 10.9211 19" stroke="#A5A5A5" stroke-width="2" stroke-linecap="round" stroke-linejoin="round"/>
</svg>
